<svg  viewBox="0 0 272 44" fill="none" xmlns="http://www.w3.org/2000/svg">
<path d="M18.7559 0L37.5118 10.8287V32.4862L18.7559 43.3149L0 32.4862V10.8287L18.7559 0Z" fill="#065E7C"/>
<path d="M56.9038 34H51.6646V12.7178C51.6646 11.2363 51.9536 9.98975 52.5317 8.97803C53.1219 7.95426 53.9469 7.18343 55.0068 6.66553C56.0788 6.13558 57.3494 5.87061 58.8188 5.87061C59.3006 5.87061 59.7643 5.90674 60.21 5.979C60.6556 6.03923 61.0892 6.11751 61.5107 6.21387L61.4565 10.1343C61.2277 10.0741 60.9868 10.0319 60.7339 10.0078C60.481 9.98372 60.1859 9.97168 59.8486 9.97168C59.2223 9.97168 58.6864 10.0801 58.2407 10.2969C57.8071 10.5016 57.4759 10.8088 57.2471 11.2183C57.0182 11.6278 56.9038 12.1276 56.9038 12.7178V34ZM60.8062 14.4521V18.1377H48.7559V14.4521H60.8062ZM62.7031 24.4248V24.0454C62.7031 22.6121 62.9079 21.2933 63.3174 20.0889C63.7269 18.8724 64.3231 17.8185 65.106 16.9272C65.8888 16.036 66.8524 15.3434 67.9966 14.8496C69.1408 14.3438 70.4536 14.0908 71.9351 14.0908C73.4165 14.0908 74.7354 14.3438 75.8916 14.8496C77.0479 15.3434 78.0174 16.036 78.8003 16.9272C79.5952 17.8185 80.1974 18.8724 80.6069 20.0889C81.0164 21.2933 81.2212 22.6121 81.2212 24.0454V24.4248C81.2212 25.846 81.0164 27.1649 80.6069 28.3813C80.1974 29.5858 79.5952 30.6396 78.8003 31.543C78.0174 32.4342 77.0539 33.1268 75.9097 33.6206C74.7655 34.1144 73.4526 34.3613 71.9712 34.3613C70.4897 34.3613 69.1709 34.1144 68.0146 33.6206C66.8704 33.1268 65.9009 32.4342 65.106 31.543C64.3231 30.6396 63.7269 29.5858 63.3174 28.3813C62.9079 27.1649 62.7031 25.846 62.7031 24.4248ZM67.9062 24.0454V24.4248C67.9062 25.2438 67.9785 26.0086 68.123 26.7192C68.2676 27.4299 68.4964 28.0562 68.8096 28.5981C69.1348 29.1281 69.5563 29.5436 70.0742 29.8447C70.5921 30.1458 71.2244 30.2964 71.9712 30.2964C72.6938 30.2964 73.3141 30.1458 73.832 29.8447C74.3499 29.5436 74.7655 29.1281 75.0786 28.5981C75.3918 28.0562 75.6206 27.4299 75.7651 26.7192C75.9217 26.0086 76 25.2438 76 24.4248V24.0454C76 23.2505 75.9217 22.5037 75.7651 21.8052C75.6206 21.0946 75.3857 20.4683 75.0605 19.9263C74.7474 19.3722 74.3319 18.9386 73.814 18.6255C73.2961 18.3123 72.6698 18.1558 71.9351 18.1558C71.2004 18.1558 70.5741 18.3123 70.0562 18.6255C69.5503 18.9386 69.1348 19.3722 68.8096 19.9263C68.4964 20.4683 68.2676 21.0946 68.123 21.8052C67.9785 22.5037 67.9062 23.2505 67.9062 24.0454ZM83.5879 24.4248V24.0454C83.5879 22.6121 83.7926 21.2933 84.2021 20.0889C84.6117 18.8724 85.2078 17.8185 85.9907 16.9272C86.7736 16.036 87.7371 15.3434 88.8813 14.8496C90.0256 14.3438 91.3384 14.0908 92.8198 14.0908C94.3013 14.0908 95.6201 14.3438 96.7764 14.8496C97.9326 15.3434 98.9022 16.036 99.6851 16.9272C100.48 17.8185 101.082 18.8724 101.492 20.0889C101.901 21.2933 102.106 22.6121 102.106 24.0454V24.4248C102.106 25.846 101.901 27.1649 101.492 28.3813C101.082 29.5858 100.48 30.6396 99.6851 31.543C98.9022 32.4342 97.9386 33.1268 96.7944 33.6206C95.6502 34.1144 94.3374 34.3613 92.856 34.3613C91.3745 34.3613 90.0557 34.1144 88.8994 33.6206C87.7552 33.1268 86.7856 32.4342 85.9907 31.543C85.2078 30.6396 84.6117 29.5858 84.2021 28.3813C83.7926 27.1649 83.5879 25.846 83.5879 24.4248ZM88.791 24.0454V24.4248C88.791 25.2438 88.8633 26.0086 89.0078 26.7192C89.1523 27.4299 89.3812 28.0562 89.6943 28.5981C90.0195 29.1281 90.4411 29.5436 90.959 29.8447C91.4769 30.1458 92.1092 30.2964 92.856 30.2964C93.5786 30.2964 94.1989 30.1458 94.7168 29.8447C95.2347 29.5436 95.6502 29.1281 95.9634 28.5981C96.2765 28.0562 96.5054 27.4299 96.6499 26.7192C96.8065 26.0086 96.8848 25.2438 96.8848 24.4248V24.0454C96.8848 23.2505 96.8065 22.5037 96.6499 21.8052C96.5054 21.0946 96.2705 20.4683 95.9453 19.9263C95.6322 19.3722 95.2166 18.9386 94.6987 18.6255C94.1808 18.3123 93.5545 18.1558 92.8198 18.1558C92.0851 18.1558 91.4588 18.3123 90.9409 18.6255C90.4351 18.9386 90.0195 19.3722 89.6943 19.9263C89.3812 20.4683 89.1523 21.0946 89.0078 21.8052C88.8633 22.5037 88.791 23.2505 88.791 24.0454ZM116.848 29.7363V6.25H122.087V34H117.372L116.848 29.7363ZM104.491 24.4609V24.0815C104.491 22.5881 104.659 21.2331 104.997 20.0166C105.334 18.7881 105.828 17.7342 106.478 16.855C107.128 15.9757 107.929 15.2952 108.881 14.8135C109.832 14.3317 110.916 14.0908 112.133 14.0908C113.277 14.0908 114.277 14.3317 115.132 14.8135C115.999 15.2952 116.734 15.9818 117.336 16.873C117.95 17.7523 118.444 18.7941 118.817 19.9985C119.191 21.1909 119.462 22.4977 119.63 23.9189V24.75C119.462 26.111 119.191 27.3757 118.817 28.5439C118.444 29.7122 117.95 30.736 117.336 31.6152C116.734 32.4824 115.999 33.1569 115.132 33.6387C114.265 34.1204 113.253 34.3613 112.097 34.3613C110.88 34.3613 109.796 34.1144 108.845 33.6206C107.905 33.1268 107.11 32.4342 106.46 31.543C105.822 30.6517 105.334 29.6038 104.997 28.3994C104.659 27.195 104.491 25.8822 104.491 24.4609ZM109.694 24.0815V24.4609C109.694 25.2679 109.754 26.0207 109.875 26.7192C110.007 27.4178 110.218 28.0381 110.507 28.5801C110.808 29.11 111.193 29.5256 111.663 29.8267C112.145 30.1157 112.729 30.2603 113.416 30.2603C114.307 30.2603 115.042 30.0615 115.62 29.6641C116.198 29.2546 116.637 28.6945 116.938 27.9839C117.252 27.2733 117.432 26.4543 117.48 25.5269V23.1602C117.444 22.4014 117.336 21.7209 117.155 21.1187C116.987 20.5044 116.734 19.9805 116.396 19.5469C116.071 19.1133 115.662 18.776 115.168 18.5352C114.686 18.2943 114.114 18.1738 113.452 18.1738C112.777 18.1738 112.199 18.3304 111.717 18.6436C111.236 18.9447 110.844 19.3602 110.543 19.8901C110.254 20.4201 110.037 21.0464 109.893 21.769C109.76 22.4797 109.694 23.2505 109.694 24.0815ZM144.363 34.3613C142.846 34.3613 141.485 34.1204 140.28 33.6387C139.076 33.1449 138.052 32.4644 137.209 31.5972C136.378 30.73 135.74 29.7243 135.294 28.5801C134.848 27.4238 134.625 26.1953 134.625 24.8945V24.1719C134.625 22.6904 134.836 21.3354 135.258 20.1069C135.679 18.8784 136.282 17.8125 137.064 16.9092C137.859 16.0059 138.823 15.3133 139.955 14.8315C141.087 14.3377 142.364 14.0908 143.785 14.0908C145.17 14.0908 146.399 14.3197 147.471 14.7773C148.543 15.235 149.44 15.8854 150.163 16.7285C150.897 17.5716 151.451 18.5833 151.825 19.7637C152.198 20.932 152.385 22.2327 152.385 23.666V25.834H136.848V22.3652H147.272V21.9678C147.272 21.2451 147.139 20.6007 146.875 20.0347C146.622 19.4565 146.236 18.9989 145.718 18.6616C145.2 18.3244 144.538 18.1558 143.731 18.1558C143.044 18.1558 142.454 18.3063 141.96 18.6074C141.467 18.9085 141.063 19.3301 140.75 19.8721C140.449 20.4141 140.22 21.0524 140.063 21.7871C139.919 22.5098 139.847 23.3047 139.847 24.1719V24.8945C139.847 25.6774 139.955 26.4001 140.172 27.0625C140.401 27.7249 140.72 28.297 141.129 28.7788C141.551 29.2606 142.057 29.634 142.647 29.8989C143.249 30.1639 143.93 30.2964 144.688 30.2964C145.628 30.2964 146.501 30.1157 147.308 29.7544C148.127 29.381 148.832 28.821 149.422 28.0742L151.951 30.8203C151.542 31.4105 150.982 31.9766 150.271 32.5186C149.572 33.0605 148.729 33.5062 147.742 33.8555C146.754 34.1927 145.628 34.3613 144.363 34.3613ZM159.539 14.4521L162.773 20.396L166.097 14.4521H171.644L166.115 24.0093L171.896 34H166.332L162.809 27.7129L159.286 34H153.722L159.503 24.0093L153.975 14.4521H159.539ZM179.376 18.21V41.5156H174.173V14.4521H178.997L179.376 18.21ZM191.751 24.0093V24.3887C191.751 25.8099 191.583 27.1287 191.246 28.3452C190.92 29.5617 190.439 30.6216 189.8 31.5249C189.162 32.4162 188.367 33.1147 187.416 33.6206C186.476 34.1144 185.392 34.3613 184.164 34.3613C182.971 34.3613 181.935 34.1204 181.056 33.6387C180.177 33.1569 179.436 32.4824 178.834 31.6152C178.244 30.736 177.768 29.7183 177.407 28.562C177.045 27.4058 176.768 26.1652 176.576 24.8403V23.8467C176.768 22.4255 177.045 21.1247 177.407 19.9443C177.768 18.752 178.244 17.7222 178.834 16.855C179.436 15.9757 180.171 15.2952 181.038 14.8135C181.917 14.3317 182.947 14.0908 184.127 14.0908C185.368 14.0908 186.458 14.3257 187.397 14.7954C188.349 15.2651 189.144 15.9396 189.782 16.8188C190.433 17.6981 190.92 18.7459 191.246 19.9624C191.583 21.1789 191.751 22.5278 191.751 24.0093ZM186.53 24.3887V24.0093C186.53 23.1782 186.458 22.4134 186.313 21.7148C186.181 21.0042 185.964 20.384 185.663 19.854C185.374 19.3241 184.989 18.9146 184.507 18.6255C184.037 18.3244 183.465 18.1738 182.791 18.1738C182.08 18.1738 181.472 18.2882 180.966 18.5171C180.472 18.7459 180.069 19.0771 179.755 19.5107C179.442 19.9443 179.207 20.4622 179.051 21.0645C178.894 21.6667 178.798 22.3472 178.762 23.106V25.6172C178.822 26.5085 178.991 27.3094 179.268 28.02C179.545 28.7186 179.972 29.2726 180.55 29.6821C181.128 30.0916 181.887 30.2964 182.827 30.2964C183.513 30.2964 184.091 30.1458 184.561 29.8447C185.031 29.5316 185.41 29.104 185.699 28.562C186 28.02 186.211 27.3937 186.332 26.6831C186.464 25.9725 186.53 25.2077 186.53 24.3887ZM200.478 6.25V34H195.256V6.25H200.478ZM203.946 24.4248V24.0454C203.946 22.6121 204.151 21.2933 204.561 20.0889C204.97 18.8724 205.566 17.8185 206.349 16.9272C207.132 16.036 208.096 15.3434 209.24 14.8496C210.384 14.3438 211.697 14.0908 213.178 14.0908C214.66 14.0908 215.979 14.3438 217.135 14.8496C218.291 15.3434 219.261 16.036 220.043 16.9272C220.838 17.8185 221.441 18.8724 221.85 20.0889C222.26 21.2933 222.464 22.6121 222.464 24.0454V24.4248C222.464 25.846 222.26 27.1649 221.85 28.3813C221.441 29.5858 220.838 30.6396 220.043 31.543C219.261 32.4342 218.297 33.1268 217.153 33.6206C216.009 34.1144 214.696 34.3613 213.214 34.3613C211.733 34.3613 210.414 34.1144 209.258 33.6206C208.114 33.1268 207.144 32.4342 206.349 31.543C205.566 30.6396 204.97 29.5858 204.561 28.3813C204.151 27.1649 203.946 25.846 203.946 24.4248ZM209.149 24.0454V24.4248C209.149 25.2438 209.222 26.0086 209.366 26.7192C209.511 27.4299 209.74 28.0562 210.053 28.5981C210.378 29.1281 210.799 29.5436 211.317 29.8447C211.835 30.1458 212.468 30.2964 213.214 30.2964C213.937 30.2964 214.557 30.1458 215.075 29.8447C215.593 29.5436 216.009 29.1281 216.322 28.5981C216.635 28.0562 216.864 27.4299 217.008 26.7192C217.165 26.0086 217.243 25.2438 217.243 24.4248V24.0454C217.243 23.2505 217.165 22.5037 217.008 21.8052C216.864 21.0946 216.629 20.4683 216.304 19.9263C215.991 19.3722 215.575 18.9386 215.057 18.6255C214.539 18.3123 213.913 18.1558 213.178 18.1558C212.444 18.1558 211.817 18.3123 211.299 18.6255C210.793 18.9386 210.378 19.3722 210.053 19.9263C209.74 20.4683 209.511 21.0946 209.366 21.8052C209.222 22.5037 209.149 23.2505 209.149 24.0454ZM230.865 18.7158V34H225.662V14.4521H230.558L230.865 18.7158ZM236.755 14.3257L236.665 19.1494C236.412 19.1133 236.104 19.0832 235.743 19.0591C235.394 19.0229 235.075 19.0049 234.786 19.0049C234.051 19.0049 233.413 19.1012 232.871 19.2939C232.341 19.4746 231.895 19.7456 231.534 20.1069C231.184 20.4683 230.919 20.9079 230.739 21.4258C230.57 21.9437 230.474 22.5339 230.45 23.1963L229.402 22.8711C229.402 21.6064 229.528 20.4442 229.781 19.3843C230.034 18.3123 230.402 17.3789 230.883 16.584C231.377 15.7891 231.979 15.1748 232.69 14.7412C233.401 14.3076 234.214 14.0908 235.129 14.0908C235.418 14.0908 235.713 14.1149 236.014 14.1631C236.315 14.1992 236.562 14.2534 236.755 14.3257ZM247.848 34.3613C246.33 34.3613 244.969 34.1204 243.765 33.6387C242.56 33.1449 241.536 32.4644 240.693 31.5972C239.862 30.73 239.224 29.7243 238.778 28.5801C238.333 27.4238 238.11 26.1953 238.11 24.8945V24.1719C238.11 22.6904 238.321 21.3354 238.742 20.1069C239.164 18.8784 239.766 17.8125 240.549 16.9092C241.344 16.0059 242.307 15.3133 243.439 14.8315C244.572 14.3377 245.848 14.0908 247.27 14.0908C248.655 14.0908 249.883 14.3197 250.955 14.7773C252.027 15.235 252.924 15.8854 253.647 16.7285C254.382 17.5716 254.936 18.5833 255.309 19.7637C255.682 20.932 255.869 22.2327 255.869 23.666V25.834H240.332V22.3652H250.756V21.9678C250.756 21.2451 250.624 20.6007 250.359 20.0347C250.106 19.4565 249.721 18.9989 249.203 18.6616C248.685 18.3244 248.022 18.1558 247.215 18.1558C246.529 18.1558 245.939 18.3063 245.445 18.6074C244.951 18.9085 244.548 19.3301 244.234 19.8721C243.933 20.4141 243.704 21.0524 243.548 21.7871C243.403 22.5098 243.331 23.3047 243.331 24.1719V24.8945C243.331 25.6774 243.439 26.4001 243.656 27.0625C243.885 27.7249 244.204 28.297 244.614 28.7788C245.035 29.2606 245.541 29.634 246.131 29.8989C246.734 30.1639 247.414 30.2964 248.173 30.2964C249.112 30.2964 249.986 30.1157 250.792 29.7544C251.611 29.381 252.316 28.821 252.906 28.0742L255.436 30.8203C255.026 31.4105 254.466 31.9766 253.755 32.5186C253.057 33.0605 252.214 33.5062 251.226 33.8555C250.238 34.1927 249.112 34.3613 247.848 34.3613ZM264.035 18.7158V34H258.832V14.4521H263.728L264.035 18.7158ZM269.925 14.3257L269.834 19.1494C269.582 19.1133 269.274 19.0832 268.913 19.0591C268.564 19.0229 268.245 19.0049 267.956 19.0049C267.221 19.0049 266.583 19.1012 266.041 19.2939C265.511 19.4746 265.065 19.7456 264.704 20.1069C264.354 20.4683 264.089 20.9079 263.909 21.4258C263.74 21.9437 263.644 22.5339 263.62 23.1963L262.572 22.8711C262.572 21.6064 262.698 20.4442 262.951 19.3843C263.204 18.3123 263.571 17.3789 264.053 16.584C264.547 15.7891 265.149 15.1748 265.86 14.7412C266.57 14.3076 267.383 14.0908 268.299 14.0908C268.588 14.0908 268.883 14.1149 269.184 14.1631C269.485 14.1992 269.732 14.2534 269.925 14.3257Z" fill="white"/>
</svg>
